<?xml version="1.0" standalone="no"?>
<svg version="1.1" id="Layer_1" xmlns="http://www.w3.org/2000/svg" xmlns:xlink="http://www.w3.org/1999/xlink" x="0px" y="0px" width="595.279px" height="595.279px" viewBox="0 0.001 595.279 595.279" enable-background="new 0 0.001 595.279 595.279" xml:space="preserve">
<path id="color_x5F_5" fill="#ffd2bb" d="M318.373,166.912c-1.102-2.344-3.897-3.351-6.246-2.248l-0.266,0.124l-0.001-0.203
	c-0.112-0.033-0.267-0.078-0.442-0.129c-0.062-0.02-0.126-0.04-0.193-0.061c-0.125-0.036-0.259-0.076-0.406-0.121
	c-0.112-0.034-0.216-0.066-0.341-0.104c-0.186-0.056-0.386-0.117-0.594-0.183c-0.062-0.019-0.136-0.043-0.198-0.063l-0.155-3.403
	c-0.375-8.248-9.105-9.491-17.357-9.117c-6.116,0.278-10.243,1.375-11.82,5.284c-0.519,1.634-0.778,3.378-0.695,5.191l0.084,1.836
	c0.036-0.03,0.071-0.057,0.11-0.086c-0.037,0.027-0.074,0.066-0.111,0.094c-0.1,0.08-0.194,0.149-0.292,0.22
	c-0.071,0.056-0.144,0.111-0.216,0.164c-0.173,0.126-0.338,0.243-0.5,0.354c-0.046,0.028-0.094,0.065-0.14,0.095
	c-0.198,0.131-0.385,0.248-0.56,0.354c-0.071,0.043-0.132,0.076-0.2,0.116c-0.102,0.061-0.205,0.119-0.295,0.17
	c-0.069,0.037-0.127,0.068-0.19,0.103c-0.076,0.041-0.145,0.077-0.21,0.111c-0.05,0.025-0.093,0.046-0.134,0.065
	c-0.064,0.032-0.114,0.057-0.157,0.076c-0.026,0.013-0.044,0.022-0.063,0.031c-0.046,0.02-0.077,0.032-0.078,0.034l-0.001,0.002
	v-0.001l-0.506-0.212c-2.389-1.006-5.137,0.114-6.147,2.503c-0.763,1.814,1.408,5.683,2.503,6.148l4.36,1.838l0.024,1.086
	c0.094,4.553,2.152,9.004,5.405,12.303c1.056,1.063,2.232,2.002,3.511,2.785l-0.558,2.784l-1.48,7.403l-1.226,6.136
	c0.077,0.116,0.159,0.225,0.237,0.341c0.038,0.049,0.074,0.104,0.11,0.157c3.277,4.507,7.737,7.443,12.59,7.342
	c4.828-0.099,9.144-3.187,12.227-7.785l-0.709-2.967l-0.738-3.089l-2.321-9.726l-0.151-0.651c6.041-3.861,8.361-11.173,8.264-15.756
	l-0.024-1.194l4.057-1.905C318.473,172.05,319.478,169.258,318.373,166.912z M285.71,169.213c-0.601,0.065-1.02,0.603-1.301,1.087
	c-0.512,0.883-1.899,0.115-1.387-0.774c0.557-0.962,1.584-1.989,2.804-1.904c1.357,0.098,2.153,1.037,2.624,2.247
	c0.368,0.956-1.158,1.401-1.522,0.455C286.725,169.815,286.355,169.141,285.71,169.213z M304.033,169.969
	c-0.198-0.506-0.57-1.18-1.216-1.107c-0.604,0.065-1.025,0.601-1.301,1.085c-0.515,0.885-1.901,0.117-1.389-0.772
	c0.558-0.962,1.585-1.99,2.803-1.904c1.361,0.095,2.154,1.037,2.622,2.246C305.924,170.474,304.402,170.917,304.033,169.969z
	 M279.74,163.724l0.001-0.008c0.036-0.03,0.071-0.057,0.11-0.086C279.814,163.657,279.777,163.697,279.74,163.724z M377.314,196.067
	c0,5.333-3.148,9.921-7.682,12.038c-1.706,0.796-3.602,1.254-5.608,1.254c-1.47,0-2.879-0.248-4.201-0.689
	c-5.278-1.76-9.089-6.732-9.089-12.603c0-7.34,5.951-13.291,13.29-13.291C371.365,182.777,377.314,188.727,377.314,196.067z
	 M269.09,333.645c0,7.34-5.95,13.291-13.29,13.291c-7.34,0-13.291-5.951-13.291-13.291c0-2.911,0.947-5.595,2.534-7.784
	c2.279-3.143,5.893-5.241,10.015-5.47c0.247-0.014,0.492-0.037,0.742-0.037C263.14,320.354,269.09,326.305,269.09,333.645z
	 M416.759,393.459c-3.082,4.599-7.398,7.687-12.227,7.785c-4.852,0.101-9.313-2.835-12.59-7.342
	c-0.035-0.053-0.072-0.108-0.109-0.157c-0.078-0.116-0.16-0.226-0.238-0.342l1.227-6.135l1.48-7.403l0.557-2.784v-0.017
	c2.668,1.641,5.752,2.608,9.035,2.545c3.613-0.077,6.568-1.062,8.945-2.583l0.152,0.65l2.32,9.727l0.738,3.089L416.759,393.459z
	 M388.747,348.737v-0.008c0.037-0.029,0.072-0.057,0.11-0.086C388.821,348.671,388.784,348.71,388.747,348.737z M200.451,394.276
	c-3.082,4.599-7.398,7.687-12.227,7.785c-4.852,0.101-9.313-2.835-12.59-7.342c-0.035-0.053-0.072-0.108-0.109-0.157
	c-0.078-0.116-0.16-0.226-0.238-0.342l1.227-6.135l1.48-7.403l0.557-2.784v-0.017c2.668,1.641,5.752,2.608,9.035,2.545
	c3.613-0.077,6.568-1.062,8.945-2.583l0.152,0.65l2.32,9.727l0.738,3.089L200.451,394.276z M172.44,349.554v-0.008
	c0.037-0.029,0.072-0.057,0.11-0.086C172.514,349.488,172.477,349.527,172.44,349.554z M467.053,355.658
	c-5.711,0.472-11.441,0.619-17.182,0.371c-0.446-0.992-0.887-2.006-1.314-3.024c-3.281-7.75-6.025-16.047-7.096-22.602
	c-0.939-0.105-1.954-0.283-3.07-0.521c-3.584-0.768-13.398-7.223-11.746-9.795c1.314-2.039,5.017,4.112,6.377,1.6
	c1.504-2.79-7.709-13.551-4.894-14.711c3.19-1.31,5.54,9.867,7.819,8.427c2.282-1.441-7.392-12.538-3.999-13.804
	c3.396-1.27,5.64,11.93,8.085,10.792c2.447-1.142-5.364-10.577-2.314-11.819c3.397-1.39,5.656,12.938,7.158,12.102
	c2.516-1.395-3.682-9.113-1.085-10.355c1.533-0.735,3.707,3.928,5.308,9.326c1.414,4.777,2.161,9.948,1.144,12.918
	c-0.038,0.113-0.081,0.219-0.122,0.328c3.871,5.428,7.573,12.553,7.573,12.553s3.474,6.461,7.034,13.531
	C465.512,352.526,466.3,354.107,467.053,355.658z M132.24,350.973c3.561-7.07,7.034-13.531,7.034-13.531s3.702-7.125,7.573-12.553
	c-0.041-0.109-0.084-0.215-0.122-0.328c-1.018-2.97-0.271-8.141,1.144-12.918c1.601-5.398,3.774-10.062,5.308-9.326
	c2.597,1.242-3.601,8.961-1.085,10.355c1.502,0.836,3.761-13.491,7.158-12.102c3.05,1.242-4.762,10.678-2.314,11.819
	c2.445,1.138,4.688-12.062,8.085-10.792c3.393,1.266-6.281,12.362-3.999,13.804c2.279,1.44,4.629-9.736,7.819-8.427
	c2.815,1.16-6.397,11.921-4.894,14.711c1.36,2.513,5.063-3.639,6.377-1.6c1.652,2.572-8.162,9.027-11.746,9.795
	c-1.116,0.238-2.131,0.416-3.07,0.521c-1.07,6.555-3.814,14.852-7.096,22.602c-0.428,1.019-0.868,2.032-1.314,3.024
	c-5.74,0.248-11.471,0.101-17.182-0.371C130.67,354.107,131.457,352.526,132.24,350.973z M517.871,349.382
	c-0.214,0.168-0.422,0.357-0.64,0.516c-0.025,0.024-0.05,0.04-0.084,0.058c-2.464,1.793-5.109,2.925-7.626,3.303
	c-1.339,0.211-2.635,0.208-3.854-0.017c0.723-0.232,1.403-0.59,2.008-1.057c0.638-0.481,1.184-1.093,1.615-1.812
	c0.992-1.644,0.991-3.715-0.53-5.013c-2.04-1.738-5.206-1.185-7.018,0.563c-0.95,0.914-1.579,2.119-1.919,3.414
	c-1.897-3-2.124-7.231-0.74-11.559c0.949-0.404-8.845,0.459-9.623,0.553l-0.115,0.015c-0.744,2.549-1.012,5.353-0.662,8.255
	c0.025,0.209,0.048,0.416,0.067,0.625c-0.199,0.293-0.378,0.609-0.523,0.953c-0.991,2.357-2.904,4.215-0.914,5.053
	c0.444,0.186,1.055,0.302,1.733,0.349c0.084,7.055-0.067,12.633,6.271,11.867c1.988-0.24,4.438-1.087,6.997-2.364l1.858,10.253
	l21.489-5.155L517.871,349.382z M493.193,348.463c-0.546,0.06-1.049-0.612-1.137-1.495s0.288-1.648,0.828-1.705
	c0.546-0.06,1.052,0.609,1.137,1.492C494.105,347.639,493.731,348.403,493.193,348.463z M106.642,344.298
	c-0.208-0.311-0.442-0.588-0.692-0.839c-0.02-0.208-0.037-0.416-0.051-0.626c-0.199-2.917-0.986-5.621-2.193-7.986l-0.116,0.008
	c-0.782,0.053-10.565,1.035-9.557,1.254c-0.508-1.262-0.509,8.591-0.51,8.411c0,0.18,0.001,0.358,0.002,0.538
	c0.032,7.516,0.501,14.665,2.063,16.515c2.753,0.776,5.318,1.15,7.316,1.015c6.37-0.433,5.179-5.884,3.943-12.83
	c0.658-0.173,1.236-0.401,1.638-0.666C110.283,347.895,108.056,346.428,106.642,344.298z M101.817,345.505
	c-0.54,0.042-1.05-0.639-1.132-1.523c-0.082-0.883,0.29-1.635,0.837-1.678c0.542-0.046,1.054,0.636,1.132,1.52
	S102.364,345.461,101.817,345.505z"></path>
<path id="color_x5F_4" fill="#0984e3" d="M369.297,343.643v32.265h-8.707v87.024H229.191v-87.024h-7.867v-32.265H369.297z
	 M129.916,252.881l-8.682,14.943h17.364L129.916,252.881z M129.916,257.559l4.598,7.914h-9.195L129.916,257.559z M409.022,175.305
	l-8.682,14.943h17.363L409.022,175.305z M409.022,179.983l4.598,7.914h-9.194L409.022,179.983z M537.85,462.932
	c-0.24-18.262,15.388-72.979-10.436-88.932c-0.904-1.211-1.753-2.721-1.752-5.82l-21.489,5.155h-0.001
	c-2.703,1.645,1.983,6.905-0.663,9.867c-3.394,3.796-6.584,8.737-9.183,14.956c-4.582,7.927-0.55,41.347,3.039,64.773H537.85z
	 M119.195,401.247c-3.489-17.545-19.639-34.972-23.607-39.675c-1.561-1.85-1.555-25.464-1.555-25.464
	c-1.008-0.219,8.775-1.201,9.557-1.254l0.116-0.008h0.007c-0.046-0.679,1.912-13.346-13.284-16.506
	c-3.456-0.719-8.826-0.064-9.008-0.045l-0.056,0.004c-11.001,1.696-14.063,7.633-14.514,13.135c-0.087,1.067-0.08,2.119-0.009,3.12
	l0.716,22.308c0,0-1.558,22.514-6.863,37.013c-10.228,27.954,0,58.973,0,58.973l10.67-40.009c0,0,2.83-19.991,20.015-18.964
	s27.013,49.479,27.013,49.479S122.695,418.847,119.195,401.247z M93.523,344.519c-0.205,0.154-0.406,0.202-0.58,0.089
	c0.206,0.135,0.394,0.292,0.582,0.449C93.524,344.878,93.524,344.699,93.523,344.519z"></path>
<path id="color_x5F_3" fill="#e84393" d="M187.055,188.104c-3.408,0-5.191-2.682-5.191-5.328c0-1.369,0.458-2.654,1.288-3.619
	c0.96-1.117,2.31-1.707,3.903-1.707c3.409,0,5.191,2.68,5.191,5.326c0,1.369-0.458,2.654-1.289,3.621
	C189.999,187.512,188.649,188.104,187.055,188.104z M187.055,179.799c-0.9,0-1.614,0.299-2.121,0.889
	c-0.458,0.533-0.72,1.293-0.72,2.088c0,1.105,0.598,2.977,2.84,2.977c0.9,0,1.614-0.299,2.121-0.889
	c0.458-0.531,0.72-1.293,0.72-2.088C189.896,181.67,189.298,179.799,187.055,179.799z M467.052,266.648h-11.577V269h11.577V266.648z
	 M462.439,262.035h-2.352v11.578h2.352V262.035z M294.374,209.244l-7.298-5.121L294.374,209.244L294.374,209.244z M312.85,204.573
	c0.015-0.001,0.028-0.002,0.043-0.003c0,0-2.159-0.324-3.27-0.391v-6.373l-8.422,6.317l-6.828,5.121l-7.298-5.121l-9.002-6.317
	v6.648c-0.567,0.087-1.126,0.195-1.68,0.316c0,0,0.237,5.111-0.01,5.847v101.482h36.264
	C311.649,292.349,307.544,205.035,312.85,204.573z"></path>
<path id="color_x5F_2" fill="#fbc02d" d="M367.897,281.178l-8.822,9.931c-6.995,3.263-14.837,5.092-23.119,5.092
	c-0.493,0-0.979-0.023-1.47-0.036c-8.209-0.215-15.951-2.224-22.831-5.642c-17.252-8.569-29.066-25.961-29.066-46.037
	c0-13.812,5.599-26.348,14.703-35.624c-3.721,6.304-5.858,13.597-5.858,21.379c0,14.762,7.656,27.787,19.324,35.565
	c6.789,4.525,14.936,7.266,23.729,7.543c0.489,0.016,0.977,0.036,1.47,0.036c8.466,0,16.38-2.292,23.119-6.267L367.897,281.178z
	 M208.828,358.988l-4.057,1.904l0.023,1.194c0.098,4.583-2.223,11.896-8.264,15.757c-2.377,1.521-5.332,2.506-8.945,2.583
	c-3.283,0.063-6.367-0.904-9.035-2.545v0.017c-1.277-0.783-2.455-1.723-3.51-2.785c-3.254-3.299-5.312-7.75-5.406-12.303
	l-0.023-1.087l-4.359-1.838c-1.096-0.465-3.268-4.334-2.504-6.147c1.01-2.39,3.758-3.51,6.146-2.504l0.506,0.213v0.001l0.002-0.002
	l-0.203-9.873c-0.093-4.436,1.695-8.512,4.684-11.526c0.03-0.039,0.063-0.071,0.094-0.097c3.121-3.127,7.537-5.123,12.463-5.227
	c4.848-0.099,9.281,1.66,12.531,4.578c3.242,2.918,5.297,7,5.387,11.547l0.201,9.567l0.002,0.203l0.266-0.124
	c2.348-1.103,5.145-0.096,6.246,2.248C212.178,355.088,211.172,357.881,208.828,358.988z M360.59,462.932v-16.418
	c3.435-6.839,6.595-15.806,11.786-20.389l5.072,36.807h57.484l7.555-45.515c0,0,0.09-0.558,0.221-1.493
	c-4.264,1.391,29.715-22.322,30.127-36.749c0.439-1.026,0.735-2.136,0.834-3.309c0.197-2.405-3.695-16.838-8.939-24.894
	c0.783,1.553,1.57,3.134,2.324,4.685c-5.711,0.472-11.441,0.619-17.182,0.371c-0.446-0.992-0.887-2.006-1.314-3.024
	c2.832,9.11,5.794,14.684,3.905,21.087c-0.243,0.823-12.232,10.467-16.732,14.262c-4.335-0.79-54.472-0.589-61.379,1.349
	c-1.01,0.284-5.904,3.602-7.32,5.054c-2.496,2.562-9.325,11.837-15.036,21.241c-0.422,0.691-7.835,22.493-8.242,23.185
	c-0.788-1.49-1.981,10.803-2.996,23.751H360.59z M525.657,333.01c-0.304-6.32-2.802-15.609-17.456-15.096l-0.056,0.006
	c-0.183,0.016-0.373,0.039-0.563,0.063c-3.79,0.456-2.4,0.771-5.711,1.314c-0.647,0.106-1.481,0.221-2.567,0.352
	c-4.755,0.553-8.235-1.734-12.246-1.252c-5.427,0.654-9.283,5.651-8.619,11.15c0.658,5.467,5.52,9.379,10.899,8.799l0.007-0.001
	l0.115-0.015c0.778-0.094,10.572-0.957,9.623-0.553c-1.384,4.327-1.157,8.559,0.74,11.559c0.34-1.295,0.969-2.5,1.919-3.414
	c1.812-1.747,4.978-2.301,7.018-0.563c1.521,1.298,1.522,3.369,0.53,5.013c-0.432,0.719-0.978,1.33-1.615,1.812
	c-0.604,0.467-1.285,0.824-2.008,1.057c1.219,0.225,2.515,0.228,3.854,0.017c2.517-0.378,5.162-1.51,7.626-3.303
	c0.034-0.018,0.059-0.033,0.084-0.058c0.218-0.158,0.426-0.348,0.64-0.516c0.935-0.736,1.847-1.543,2.699-2.464
	c0.45-0.489,0.885-1.001,1.31-1.534C523.444,343.396,525.893,337.947,525.657,333.01z M119.251,462.932
	c-0.729-23.704-2.915-61.044-9.26-68.396c-3.715-5.623-7.773-9.882-11.816-12.977c-3.153-2.415,0.468-8.459-2.495-9.569h-0.001
	l-22.074-1.048c0.58,3.045-15.381,62.277-16.043,63.636c-0.288,3.922,1.831,16.238,3.834,28.354H119.251z"></path>
<path id="color_x5F_1" fill="#0984e3" d="M333.327,343.643h-76.033l-1.494-85.747c-2.264,4.427-4.484,8.468-6.527,11.748
	c-0.32,6.46,5.222,34.785,5.785,50.748c-4.122,0.229-7.736,2.327-10.015,5.47c-10.336-11.608-25.243-37.811-25.107-43.813
	c0.177-7.751,24.841-77.254,42.592-77.492c5.864-0.079,13.865,0.213,13.865,0.213c0.807,0.741,1.057,2.007,0.53,4.091
	c-0.105,0.415-0.293,1.02-0.54,1.756v101.482h36.264c-0.223-4.406-0.599-12.166-0.991-21.577c6.88,3.418,14.622,5.427,22.831,5.642
	L333.327,343.643z M285.852,192.051v0.017V192.051L285.852,192.051z M285.826,167.623c-1.22-0.085-2.247,0.941-2.804,1.904
	c-0.513,0.889,0.875,1.657,1.387,0.774c0.281-0.485,0.7-1.022,1.301-1.087c0.646-0.072,1.016,0.602,1.218,1.111
	c0.364,0.946,1.891,0.501,1.522-0.455C287.979,168.66,287.183,167.72,285.826,167.623z M302.93,167.271
	c-1.218-0.086-2.245,0.941-2.803,1.904c-0.513,0.889,0.874,1.657,1.389,0.772c0.275-0.484,0.697-1.021,1.301-1.085
	c0.646-0.072,1.018,0.601,1.216,1.107c0.369,0.948,1.891,0.505,1.52-0.452C305.085,168.308,304.292,167.366,302.93,167.271z
	 M276.781,165.582c-0.046,0.02-0.077,0.032-0.078,0.034C276.704,165.614,276.741,165.599,276.781,165.582z M278.731,164.462
	c0.162-0.111,0.329-0.227,0.5-0.354C279.058,164.235,278.893,164.351,278.731,164.462z M277.345,165.299
	c-0.074,0.038-0.147,0.077-0.21,0.111C277.2,165.376,277.269,165.34,277.345,165.299z M278.031,164.911
	c0.175-0.106,0.361-0.223,0.56-0.354C278.392,164.688,278.206,164.804,278.031,164.911z M277.535,165.197
	c0.09-0.051,0.193-0.109,0.295-0.17C277.729,165.088,277.626,165.145,277.535,165.197z M277.001,165.475
	c-0.061,0.031-0.117,0.056-0.157,0.076C276.886,165.532,276.936,165.507,277.001,165.475z M279.74,163.724l0.001-0.008
	c-0.099,0.078-0.198,0.156-0.293,0.228C279.546,163.873,279.64,163.804,279.74,163.724z M311.658,155.018
	c-0.09-4.548-2.144-8.63-5.387-11.548c-3.249-2.917-7.684-4.676-12.531-4.578c-4.926,0.104-9.341,2.1-12.463,5.228
	c-0.031,0.025-0.063,0.057-0.094,0.096c-2.988,3.014-4.776,7.091-4.683,11.527l0.203,9.873c0.001-0.002,0.039-0.016,0.078-0.034
	c0.015-0.008,0.042-0.021,0.063-0.031c0.041-0.02,0.096-0.045,0.157-0.076c0.039-0.019,0.087-0.043,0.134-0.065
	c0.063-0.034,0.137-0.073,0.21-0.111c0.063-0.033,0.125-0.066,0.19-0.103c0.09-0.051,0.193-0.109,0.295-0.17
	c0.068-0.038,0.129-0.074,0.2-0.116c0.175-0.106,0.361-0.223,0.56-0.354c0.046-0.03,0.094-0.066,0.14-0.095
	c0.162-0.111,0.329-0.227,0.5-0.354c0.073-0.053,0.145-0.108,0.216-0.164c0.095-0.072,0.195-0.15,0.293-0.228l-0.084-1.836
	c-0.097-2.133,0.147-3.829,0.695-5.191c1.577-3.908,5.704-5.006,11.82-5.284c8.252-0.375,16.982,0.869,17.357,9.117l0.155,3.405
	c0.071,0.021,0.131,0.041,0.198,0.061c0.208,0.066,0.409,0.127,0.594,0.183c0.121,0.039,0.232,0.072,0.341,0.104
	c0.144,0.043,0.284,0.086,0.406,0.121c0.066,0.021,0.135,0.042,0.193,0.061c0.173,0.051,0.331,0.096,0.442,0.129L311.658,155.018z
	 M377.31,251.282c-0.122-4.74-3.452-29.793-7.678-43.177c-1.706,0.796-3.602,1.254-5.608,1.254c-1.47,0-2.879-0.248-4.201-0.689
	c-1.811,7.09-3.224,17.193-4.146,25.932c-7.429-11.443-15.199-22.032-17.603-24.729c-5.447-6.106-11.081-6.527-25.182-5.303
	c-0.015,0.001-0.028,0.002-0.043,0.003c-3.182,0.277-2.979,31.787-2.093,61.232c6.789,4.525,14.936,7.266,23.729,7.543v-25.221
	v-2.911c11.525,9.823,25.476,20.627,32.438,22.79c0.058,0.04,0.11,0.078,0.169,0.12C372.246,271.775,377.479,257.826,377.31,251.282
	z M394.858,377.064v0.017V377.064L394.858,377.064z M412.839,377.026c-2.377,1.521-5.332,2.506-8.945,2.583
	c-3.283,0.063-6.367-0.904-9.035-2.545v0.017c-1.277-0.783-16.566,1.138-15.803-0.677c1.01-2.389,8.146-44.161,11.135-47.175
	c0.03-0.039,0.063-0.071,0.094-0.096c3.121-3.128,7.537-5.125,12.463-5.229c4.848-0.098,9.281,1.661,12.531,4.578
	c3.242,2.918,11,44.583,12.102,46.927C428.485,377.756,418.88,373.165,412.839,377.026z M178.551,377.882v0.017V377.882
	L178.551,377.882z M124.135,379.176c0.412,14.427,30.348,38.242,30.348,38.242l7.555,45.515h57.484l5.072-36.807
	c5.191,4.583,8.352,13.55,11.786,20.389v16.418h19.833c-1.015-12.948-2.208-25.241-2.996-23.751
	c-0.407-0.691-7.82-22.493-8.242-23.185c-5.711-9.404-12.54-18.68-15.036-21.241c-1.416-1.452-6.311-4.77-7.32-5.054
	c-6.907-1.938-57.044-2.139-61.379-1.349c-4.5-3.795-10.534-8.422-16.457-11.825c0.042-0.796-0.032-1.613-0.275-2.437
	c-1.889-6.403,1.073-11.977,3.905-21.087c-0.428,1.019-0.868,2.032-1.314,3.024c-5.74,0.248-11.471,0.101-17.182-0.371
	c0.754-1.551,1.541-3.132,2.324-4.685c-5.244,8.056-9.137,22.488-8.939,24.894C123.4,377.04,123.696,378.149,124.135,379.176z
	 M492.885,345.262c-0.54,0.057-0.916,0.822-0.828,1.705s0.591,1.555,1.137,1.495c0.538-0.06,0.912-0.823,0.828-1.708
	C493.936,345.872,493.43,345.203,492.885,345.262z M100.684,343.981c0.083,0.885,0.593,1.565,1.132,1.523
	c0.547-0.044,0.916-0.798,0.837-1.682s-0.591-1.565-1.132-1.52C100.974,342.346,100.603,343.098,100.684,343.981z"></path>
</svg>