<?xml version="1.0" standalone="no"?>
<svg version="1.1" id="Layer_1" xmlns="http://www.w3.org/2000/svg" xmlns:xlink="http://www.w3.org/1999/xlink" x="0px" y="0px" width="595.279px" height="595.279px" viewBox="0 0.001 595.279 595.279" enable-background="new 0 0.001 595.279 595.279" xml:space="preserve">
<path id="color_x5F_6" fill="#f8e71c" d="M296.997,68.677v-9.39c0-1.104,0.896-2,2-2s2,0.896,2,2v9.39c0,1.104-0.896,2-2,2
	S296.997,69.782,296.997,68.677z M298.997,104.714c1.104,0,2-0.896,2-2v-9.39c0-1.104-0.896-2-2-2s-2,0.896-2,2v9.39
	C296.997,103.818,297.892,104.714,298.997,104.714z M277.284,83.001h9.39c1.104,0,2-0.896,2-2s-0.896-2-2-2h-9.39
	c-1.104,0-2,0.896-2,2S276.179,83.001,277.284,83.001z M309.321,81.001c0,1.104,0.896,2,2,2h9.389c1.104,0,2-0.896,2-2s-0.896-2-2-2
	h-9.389C310.217,79.001,309.321,79.896,309.321,81.001z M288.869,73.701c0.391,0.391,0.902,0.586,1.414,0.586
	s1.023-0.195,1.414-0.586c0.781-0.781,0.781-2.048,0-2.828l-6.64-6.639c-0.781-0.781-2.047-0.781-2.828,0s-0.781,2.048,0,2.828
	L288.869,73.701z M312.936,97.768c0.391,0.391,0.902,0.586,1.414,0.586s1.023-0.195,1.414-0.586c0.781-0.781,0.781-2.047,0-2.828
	l-6.64-6.64c-0.781-0.781-2.047-0.781-2.828,0s-0.781,2.047,0,2.828L312.936,97.768z M288.869,88.301l-6.64,6.64
	c-0.781,0.781-0.781,2.047,0,2.828c0.391,0.391,0.902,0.586,1.414,0.586s1.023-0.195,1.414-0.586l6.64-6.64
	c0.781-0.781,0.781-2.047,0-2.828S289.65,87.519,288.869,88.301z M307.711,74.287c0.512,0,1.023-0.195,1.414-0.586l6.64-6.64
	c0.781-0.781,0.781-2.047,0-2.828s-2.047-0.781-2.828,0l-6.64,6.64c-0.781,0.781-0.781,2.047,0,2.828
	C306.687,74.092,307.199,74.287,307.711,74.287z M143.658,184.984c1.104,0,2-0.896,2-2v-6.432c0-1.104-0.896-2-2-2s-2,0.896-2,2
	v6.432C141.658,184.089,142.554,184.984,143.658,184.984z M143.658,208.298c1.104,0,2-0.896,2-2v-6.432c0-1.104-0.896-2-2-2
	s-2,0.896-2,2v6.432C141.658,207.403,142.554,208.298,143.658,208.298z M128.785,193.426h6.432c1.104,0,2-0.896,2-2s-0.896-2-2-2
	h-6.432c-1.104,0-2,0.896-2,2S127.681,193.426,128.785,193.426z M150.1,191.426c0,1.104,0.896,2,2,2h6.431c1.104,0,2-0.896,2-2
	s-0.896-2-2-2H152.1C150.996,189.426,150.1,190.321,150.1,191.426z M136.276,186.871c0.391,0.39,0.902,0.585,1.414,0.585
	s1.024-0.195,1.415-0.586c0.781-0.781,0.781-2.047,0-2.829l-4.548-4.547c-0.781-0.78-2.047-0.781-2.829,0
	c-0.781,0.781-0.781,2.047,0,2.829L136.276,186.871z M152.761,203.356c0.39,0.391,0.902,0.586,1.414,0.586s1.024-0.195,1.414-0.586
	c0.781-0.781,0.781-2.047,0-2.828l-4.548-4.548c-0.78-0.781-2.048-0.781-2.828,0c-0.781,0.781-0.781,2.047,0,2.828L152.761,203.356z
	 M136.276,195.98l-4.548,4.548c-0.781,0.781-0.781,2.047,0,2.828c0.39,0.391,0.902,0.586,1.414,0.586s1.023-0.195,1.414-0.586
	l4.548-4.548c0.781-0.781,0.781-2.047,0-2.828C138.323,195.199,137.057,195.199,136.276,195.98z M149.627,187.457
	c0.512,0,1.024-0.195,1.414-0.586l4.548-4.548c0.781-0.781,0.781-2.047,0-2.828c-0.781-0.781-2.048-0.781-2.828,0l-4.548,4.548
	c-0.781,0.781-0.781,2.047,0,2.828C148.604,187.261,149.115,187.457,149.627,187.457z M434.899,182.984c1.104,0,2-0.896,2-2v-6.432
	c0-1.104-0.896-2-2-2s-2,0.896-2,2v6.432C432.899,182.089,433.795,182.984,434.899,182.984z M434.899,206.298c1.104,0,2-0.896,2-2
	v-6.432c0-1.104-0.896-2-2-2s-2,0.896-2,2v6.432C432.899,205.403,433.795,206.298,434.899,206.298z M441.341,189.426
	c0,1.104,0.896,2,2,2h6.432c1.104,0,2-0.896,2-2s-0.896-2-2-2h-6.432C442.236,187.426,441.341,188.321,441.341,189.426z
	 M420.027,191.426h6.43c1.104,0,2-0.896,2-2s-0.896-2-2-2h-6.43c-1.104,0-2,0.896-2,2S418.923,191.426,420.027,191.426z
	 M440.868,185.457c0.512,0,1.023-0.195,1.414-0.586l4.548-4.547c0.781-0.781,0.781-2.047,0-2.828s-2.047-0.781-2.828,0l-4.548,4.547
	c-0.781,0.781-0.781,2.047,0,2.828C439.844,185.261,440.356,185.457,440.868,185.457z M427.516,193.98l-4.548,4.548
	c-0.781,0.781-0.781,2.047,0,2.828c0.391,0.391,0.902,0.586,1.414,0.586s1.023-0.195,1.414-0.586l4.548-4.548
	c0.781-0.781,0.781-2.047,0-2.828C429.563,193.199,428.298,193.199,427.516,193.98z M444.002,201.356
	c0.391,0.391,0.902,0.586,1.414,0.586s1.023-0.195,1.414-0.586c0.781-0.781,0.781-2.047,0-2.828l-4.548-4.548
	c-0.781-0.781-2.047-0.781-2.828,0c-0.781,0.781-0.781,2.047,0,2.828L444.002,201.356z M427.516,184.871
	c0.391,0.391,0.902,0.586,1.414,0.586s1.023-0.195,1.414-0.586c0.781-0.781,0.781-2.047,0-2.828l-4.548-4.548
	c-0.781-0.781-2.047-0.781-2.828,0c-0.781,0.781-0.781,2.047,0,2.828L427.516,184.871z M115.677,465.711
	c2.192-2.831,8.745-10.299,14.472-15.073c-10.373-47.283-6.232-57.841-5.812-58.744c-0.006-0.021-0.013-0.044-0.019-0.066
	c0,0-5.116,9.149,5.778,58.811c-5.727,4.774-12.279,12.242-14.472,15.073c-3.624,4.679-13.278,44.514-13.278,44.514
	s0.031-0.042,0.077-0.105C102.965,507.899,112.16,470.251,115.677,465.711z"></path>
<path id="color_x5F_5" fill="#ffd2bb" d="M166.961,256.998c-0.019-0.207-0.035-0.416-0.048-0.626
	c-0.189-2.916-0.968-5.621-2.167-7.989l-0.065,0.004c-0.783,0.05-10.569,1-9.562,1.223c1.746,3.239,2.42,6.602,1.923,9.519
	c0.008,0.047,0.02,0.109,0.035,0.19v-0.286c0,0,2.293,13.396,6.648,13.729c0.254,0.02,0.494,0.028,0.724,0.029
	c3.528-0.003,4.283-2.046,4.336-2.205c-0.008-2.056-0.471-4.552-0.948-7.287c0.658-0.171,1.237-0.396,1.64-0.662
	c1.802-1.188-0.419-2.663-1.827-4.797C167.444,257.53,167.21,257.251,166.961,256.998z M162.821,259.031
	c-0.54,0.041-1.048-0.641-1.127-1.527c-0.079-0.882,0.295-1.634,0.843-1.676c0.541-0.043,1.052,0.64,1.128,1.524
	C163.739,258.237,163.369,258.989,162.821,259.031z M156.515,261.108c0.238-0.598,0.394-1.232,0.511-1.882v13.566
	c0,0-0.354,0.986-0.261,2.342c-0.076-0.021-0.149-0.036-0.227-0.058l0.042,7.736l-19.673-0.595l1.825-17.753
	c0.241,0.126,0.48,0.274,0.724,0.39c0.029,0.019,0.057,0.031,0.093,0.042c2.425,1.155,4.895,1.776,7.189,1.846
	c0.308,0.011,0.613,0.009,0.914,0c0.017,0,0.035,0,0.052,0c1.354-0.039,2.628-0.279,3.784-0.725
	c-0.753-0.094-1.487-0.321-2.168-0.668c-0.715-0.357-1.364-0.857-1.92-1.485c-1.277-1.434-1.656-3.47-0.399-5.026
	c0.843-1.041,2.066-1.57,3.343-1.667c1.262-0.084,2.57,0.249,3.607,0.933c1.102,0.724,1.94,1.792,2.513,3.003
	c0.008-0.02,0.012-0.041,0.019-0.06C156.492,261.069,156.506,261.088,156.515,261.108z M380.961,294.712
	c0.001,0.359,0.002,0.695,0.003,0.999c-0.743,1.076-1.461,2.168-2.155,3.278c-0.076,0.003-0.172,0.002-0.254,0.004
	c-0.448,0.01-0.959,0.01-1.594,0.01c-4.293,0-25.152-3.18-16-15.554c2.877-3.89,7.934,2.121,12.227,2.121
	c1.793,0,1.792-8.787,3.106-7.639c1.834,1.602,4.667,13.58,4.667,16.397C380.961,294.464,380.961,294.584,380.961,294.712z
	 M201.667,295.941c-0.173-0.176-0.354-0.383-0.539-0.607c-1.375-1.663-3.026-4.439-4.407-5.66c-0.001,0-0.001-0.001-0.002-0.002
	c0-0.111,2.58-12.405,4.409-14.921c0.087-0.12,0.174-0.226,0.258-0.299c1.314-1.148,1.313,7.639,3.106,7.639
	c4.293,0,9.35-6.011,12.227-2.121C225.532,291.885,206.922,295.706,201.667,295.941z M420.918,266.371l4.27-5.681
	c-0.104-0.82-0.471-1.596-1.18-2.201c-0.764-0.65-1.685-0.978-2.633-1.044c-1.571-0.093-3.211,0.528-4.332,1.61
	c-0.951,0.914-1.578,2.118-1.918,3.414c-0.013-0.02-0.021-0.042-0.033-0.061c-0.005,0.021-0.014,0.04-0.02,0.061
	c-1.898-3.001-2.125-7.231-0.742-11.56c0.175-0.074-0.017-0.105-0.446-0.106c-1.97,0.005-8.495,0.586-9.126,0.663l-0.115,0.015
	h-0.006c-0.015,0.001-0.031,0.002-0.046,0.003c-0.743,2.548-1.011,5.35-0.659,8.251c0.025,0.209,0.047,0.417,0.066,0.624
	c-0.197,0.295-0.377,0.611-0.521,0.955c-0.992,2.357-2.904,4.215-0.914,5.052c0.445,0.187,1.055,0.302,1.734,0.349
	c0.086,7.055-0.064,12.632,6.275,11.865c1.988-0.24,4.438-1.088,6.994-2.367l2.564,14.122c2.164-3.665,4.648-7.339,5.793-11.685
	C427.873,271.266,420.918,266.371,420.918,266.371z M408.441,261.596c-0.545,0.06-1.049-0.611-1.137-1.494
	c-0.088-0.884,0.287-1.648,0.828-1.706c0.545-0.06,1.051,0.61,1.137,1.492C409.353,260.774,408.98,261.538,408.441,261.596z
	 M231.752,305.094c3.499,4.73,2.637,8.201,0.002,10.685c-3.968,3.74-11.963,5.237-15.185,5.396
	c-0.412-0.421-4.509-5.992-4.751-6.172c0.008-0.071,0.021-0.157,0.03-0.231c0.501-4.062,2.932-13.765,4.57-15.195
	c1.314-1.148,1.313,7.639,3.106,7.639c4.086,0,8.862-5.438,11.794-2.61C231.468,304.748,231.613,304.906,231.752,305.094z
	 M359.422,308.094c1.151,3.825,2.142,8.518,2.266,10.514c-0.149,0.229-0.289,0.465-0.438,0.696c-0.818,1.282-1.607,2.585-2.359,3.91
	c-0.086,0.151-0.178,0.298-0.262,0.45c-0.285,0-0.587,0-0.926,0c-4.293,0-25.152-3.18-16-15.554
	c0.197-0.268,0.406-0.483,0.624-0.663c0.152-0.125,0.309-0.229,0.469-0.315c0.598-0.32,1.254-0.385,1.951-0.283
	c2.754,0.401,6.157,3.383,9.183,3.383c0.815,0,1.26-1.816,1.625-3.689c0.438-2.247,0.765-4.575,1.481-3.949
	c0.623,0.544,1.359,2.293,2.063,4.464C359.207,307.394,359.315,307.74,359.422,308.094z"></path>
<path id="color_x5F_4" fill="#fbc02d" d="M231.752,305.094c-0.139-0.188-0.284-0.346-0.433-0.489l1.965-3.983l2.813,5.698
	l6.288,0.914l-4.55,4.434l1.074,6.264l-5.625-2.957l-1.53,0.805C234.388,313.295,235.251,309.824,231.752,305.094z M265.577,306.319
	l-2.813-5.698l-2.812,5.698l-6.288,0.914l4.549,4.434l-1.074,6.264l5.624-2.957l5.624,2.957l-1.074-6.264l4.549-4.434
	L265.577,306.319z M286.621,317.93l5.624-2.957l5.624,2.957l-1.074-6.264l4.55-4.434l-6.288-0.914l-2.813-5.698l-2.812,5.698
	l-6.288,0.914l4.549,4.434L286.621,317.93z M316.101,317.93l5.624-2.957l5.625,2.957l-1.075-6.264l4.551-4.434l-6.288-0.914
	l-2.813-5.698l-2.812,5.698l-6.288,0.914l4.55,4.434L316.101,317.93z M355.554,306.543l-1.536-0.224l-2.813-5.698l-2.812,5.698
	l-3.646,0.53c2.754,0.401,6.157,3.383,9.183,3.383C354.745,310.232,355.189,308.416,355.554,306.543z M360.306,307.233l-1.208-0.176
	c0.108,0.337,0.217,0.683,0.323,1.037L360.306,307.233z M342.106,307.233l0.221,0.215c0.152-0.125,0.309-0.229,0.469-0.315
	L342.106,307.233z M236.097,367.649l-2.813-5.697l-2.812,5.697l-6.288,0.914l4.55,4.435l-1.074,6.263l5.624-2.957l5.625,2.957
	l-1.074-6.263l4.55-4.435L236.097,367.649z M265.577,367.649l-2.813-5.697l-2.812,5.697l-6.288,0.914l4.549,4.435l-1.074,6.263
	l5.624-2.957l5.624,2.957l-1.074-6.263l4.549-4.435L265.577,367.649z M286.621,379.26l5.624-2.957l5.624,2.957l-1.074-6.263
	l4.55-4.435l-6.288-0.914l-2.813-5.697l-2.812,5.697l-6.288,0.914l4.549,4.435L286.621,379.26z M316.101,379.26l5.624-2.957
	l5.625,2.957l-1.075-6.263l4.551-4.435l-6.288-0.914l-2.813-5.697l-2.812,5.697l-6.288,0.914l4.55,4.435L316.101,379.26z
	 M345.582,379.26l5.623-2.957l5.625,2.957l-1.074-6.263l4.551-4.435l-6.288-0.914l-2.813-5.697l-2.812,5.697l-6.287,0.914
	l4.55,4.435L345.582,379.26z M227.661,200.434l5.624-2.957l5.625,2.957l-1.074-6.263l4.55-4.435l-6.288-0.914l-2.813-5.698
	l-2.812,5.698l-6.288,0.914l4.55,4.435L227.661,200.434z M265.577,188.823l-2.813-5.698l-2.812,5.698l-6.288,0.914l4.549,4.435
	l-1.074,6.263l5.624-2.957l5.624,2.957l-1.074-6.263l4.549-4.435L265.577,188.823z M286.621,200.434l5.624-2.957l5.624,2.957
	l-1.074-6.263l4.55-4.435l-6.288-0.914l-2.813-5.698l-2.812,5.698l-6.288,0.914l4.549,4.435L286.621,200.434z M316.101,200.434
	l5.624-2.957l5.625,2.957l-1.075-6.263l4.551-4.435l-6.288-0.914l-2.813-5.698l-2.812,5.698l-6.288,0.914l4.55,4.435
	L316.101,200.434z M345.582,200.434l5.623-2.957l5.625,2.957l-1.074-6.263l4.551-4.435l-6.288-0.914l-2.813-5.698l-2.812,5.698
	l-6.287,0.914l4.55,4.435L345.582,200.434z M227.661,259.48l5.624-2.957l5.625,2.957l-1.074-6.263l4.55-4.435l-6.288-0.914
	l-2.813-5.698l-2.812,5.698l-6.288,0.914l4.55,4.435L227.661,259.48z M265.577,247.869l-2.813-5.698l-2.812,5.698l-6.288,0.914
	l4.549,4.435l-1.074,6.263l5.624-2.957l5.624,2.957l-1.074-6.263l4.549-4.435L265.577,247.869z M286.621,259.48l5.624-2.957
	l5.624,2.957l-1.074-6.263l4.55-4.435l-6.288-0.914l-2.813-5.698l-2.812,5.698l-6.288,0.914l4.549,4.435L286.621,259.48z
	 M316.101,259.48l5.624-2.957l5.625,2.957l-1.075-6.263l4.551-4.435l-6.288-0.914l-2.813-5.698l-2.812,5.698l-6.288,0.914
	l4.55,4.435L316.101,259.48z M345.582,259.48l5.623-2.957l5.625,2.957l-1.074-6.263l4.551-4.435l-6.288-0.914l-2.813-5.698
	l-2.812,5.698l-6.287,0.914l4.55,4.435L345.582,259.48z"></path>
<path id="color_x5F_3" fill="#0984e3" d="M211.818,315.003c0.242,0.18,4.339,5.751,4.751,6.172
	c-4.323,3.6-10.246,7.796-15.441,11.237c-5.202,3.445-9.675,6.133-11.084,6.705c-0.875,0.355-1.774,0.541-2.663,0.585
	c-1.611,0.081-3.188-0.316-4.529-1.119c-3.218-1.219-7.461-3.421-12.03-6.066c0.657,24.691,1.574,56.191,1.658,59.091
	c0.005,0.144,0.007,0.22,0.007,0.22h-48.115h-0.052c0,0-0.001-0.374-0.002-1.074c-0.013-10.531-0.081-95.029,1.219-97.973
	c3.875-8.78,11.167-10.568,11.167-10.568l0.205,0.006l19.673,0.595c0,0,10.497,6.905,13.025,16.526
	c2.517-1.017,10.06-4.02,17.774-6.687c3.199-1.105,6.428-2.154,9.34-2.978c1.381,1.22,3.032,3.997,4.407,5.66
	c0.185,0.224,0.366,0.431,0.539,0.607c-0.173,0.145-0.361,0.294-0.539,0.441c-3.926,3.229-9.041,6.888-13.747,10.045
	c-4.217,2.83-8.097,5.255-10.458,6.584c3.871,3.389,7.523,6.971,10.209,10.457c0.078-0.031,0.168-0.066,0.249-0.098
	c3.282-1.295,8.402-3.268,13.747-5.145c3.647-1.281,7.393-2.516,10.721-3.454C211.84,314.845,211.826,314.931,211.818,315.003z
	 M463.844,397.417c11.948-2.775,18.111-5.137,18.111-5.137s-27.255-34.859-27.412-80.334c-6.74,2.62-11.97,3.639-12.006,3.339
	c-0.007-0.059-0.014-0.115-0.02-0.173c-0.031,0.003-0.052,0.002-0.053-0.004c-0.061-0.499-0.119-0.988-0.18-1.461
	c1.432-3.933,0.509-8.529-2.725-11.635c-2.172-2.084-4.973-3.102-7.75-3.064c-2.783,0.05-5.539,1.159-7.611,3.317
	c-0.849,0.884-3.357,2.735-6.672,5.21c-0.004-0.011-0.007-0.021-0.011-0.03c-0.015,0.011-0.027,0.02-0.041,0.03
	c-0.054,0.04-0.104,0.077-0.159,0.118c-0.697-0.636-1.512-1.169-2.441-1.546c-1.742-0.708-8.642-3.482-16.129-6.137
	c-4.731-1.677-9.697-3.306-13.747-4.335c-1.489-0.378-2.854-0.675-4.038-0.864c0.001,0.359,0.002,0.695,0.003,0.999
	c-0.743,1.076-1.461,2.168-2.155,3.278c-0.076,0.003-0.172,0.002-0.254,0.004c1.557,1.621,3.832,3.562,6.444,5.602
	c4.209,3.287,9.294,6.831,13.747,9.755c2.018,1.325,3.911,2.528,5.52,3.512c-1.901,1.621-3.766,3.298-5.52,4.994
	c-2.289,2.214-4.387,4.462-6.089,6.672c-1.961-0.775-4.648-1.819-7.658-2.943c-7.915-2.957-18.13-6.485-23.749-7.278
	c-0.818,1.282-1.607,2.585-2.359,3.91c4.876,5.356,18.541,14.678,26.108,19.304c2.251,1.376,3.969,2.342,4.747,2.657
	c2.461,0.999,5.111,0.712,7.192-0.534c0.568-0.215,1.179-0.471,1.808-0.744c2.841-1.236,6.245-3.029,9.879-5.123l-9.879,27.831
	l-9.469,26.675c0,0,3.654,1.475,9.469,3.217c3.238,0.97,7.149,2.021,11.477,2.95c-4.634-1.063,11.845,1.025,27.777,0.554
	C452.469,399.572,466.47,396.774,463.844,397.417z"></path>
<path id="color_x5F_2" fill="#000000" d="M470.369,465.761c3.637,4.695,13.324,44.667,13.324,44.667s-41.699-56.668-45.338-61.365
	v-0.001c-1.65-1.62-3.107-3.658-4.398-6c-0.011-0.018-0.021-0.034-0.031-0.053c-2.078,4.051-4.148,7.04-6.088,8.313
	c3.48,5.092,6.709,11.938,7.777,15.105c1.9,5.627-5.91,46.667-5.91,46.667s-14.762-54.534-19.281-70.238
	c-0.809-22.856-0.428-35.783,0.352-43.289c-0.212-0.045-0.393-0.084-0.553-0.121c-4.634-1.063,11.845,1.025,27.777,0.554
	c14.47-0.429,28.471-3.227,25.844-2.584c-0.231,0.057-0.578,0.137-1.08,0.251c-0.037,0.008-0.074,0.017-0.112,0.025
	c0.229,11.4-1.313,28.556-6.804,52.943C461.594,455.427,468.17,462.921,470.369,465.761z M168.844,270.57
	c0,0-0.004,0.01-0.006,0.017c-0.053,0.16-0.814,2.222-4.388,2.205c-0.229-0.001-0.47-0.01-0.724-0.029
	c-4.355-0.333-6.648-13.729-6.648-13.729v0.286v13.474c0,0-0.354,0.986-0.261,2.342c0.147,2.133,1.404,5.183,6.909,6.767
	c4.041,1.163,10.861-0.898,10.197-7.005C173.563,271.583,168.844,270.57,168.844,270.57z M134.108,261.271
	c0.516,0.446,1.038,0.871,1.57,1.268c1.006,0.75,2.051,1.374,3.105,1.926c0.241,0.126,0.48,0.274,0.724,0.39
	c0.029,0.019,0.057,0.031,0.093,0.042c2.407,1.146,4.858,1.769,7.138,1.846c0.308,0.011,0.613,0.009,0.914,0
	c0.017,0,0.035,0,0.052,0c1.354-0.039,2.628-0.279,3.784-0.725c-0.753-0.094-1.487-0.321-2.168-0.668
	c-0.715-0.357-1.364-0.857-1.92-1.485c-1.277-1.434-1.656-3.47-0.399-5.026c0.843-1.041,2.066-1.57,3.343-1.667
	c1.277-0.097,2.607,0.24,3.659,0.933c1.083,0.711,1.909,1.757,2.48,2.943c0.01,0.021,0.023,0.04,0.033,0.06
	c0.238-0.598,0.394-1.232,0.511-1.882c0.006-0.033,0.011-0.065,0.017-0.098c0.497-2.917-0.178-6.279-1.923-9.519
	c-1.008-0.223,8.778-1.173,9.562-1.223l0.065-0.004l0.05-0.003l0.007-0.001c5.396-0.417,9.455-5.156,9.099-10.65
	c-0.357-5.527-5.065-9.731-10.521-9.377c-4.031,0.261-7.032,3.148-11.808,3.479c-1.092,0.071-1.933,0.112-2.588,0.126
	c-3.354,0.074-2.046-0.492-5.855-0.244c-0.19,0.012-0.383,0.024-0.564,0.042l-0.057,0.003
	c-14.499,2.188-15.248,11.777-14.386,18.045C128.798,254.698,132.207,259.607,134.108,261.271z M172.538,391.827h-0.052h-48.115
	c0,0-0.012,0.021-0.033,0.066c-0.42,0.903-4.562,11.461,5.812,58.744c-5.727,4.774-12.279,12.242-14.472,15.073
	c-3.517,4.54-12.712,42.188-13.253,44.408c-0.016,0.068-0.025,0.105-0.025,0.105s41.557-56.474,45.183-61.154v-0.001
	c1.616-1.587,3.047-3.581,4.316-5.865c0.249,0.261,0.3,0.227,0.098-0.167c2.071,4.037,4.134,7.016,6.067,8.285
	c-3.469,5.074-6.687,11.897-7.751,15.054c-1.894,5.607,5.89,46.506,5.89,46.506s14.711-54.347,19.215-69.996
	c0-35.634-1.725-46.596-2.886-51.278C172.536,391.751,172.538,391.827,172.538,391.827z M414.381,250.91
	c-1.374,4.3-1.153,8.501,0.711,11.499c0.013,0.02,0.021,0.042,0.033,0.061c0.34-1.296,0.967-2.5,1.918-3.414
	c1.121-1.083,2.761-1.703,4.332-1.61c0.967,0.057,1.908,0.382,2.686,1.044c0.709,0.605,1.076,1.381,1.178,2.201l-4.27,5.681
	c0,0,6.955,4.896,5.008,12.28c-1.146,4.346-3.629,8.02-5.795,11.685c-1.414,2.396-2.684,4.79-3.359,7.364
	c-0.035,0.133-0.061,0.27-0.092,0.404c-0.665,2.811-0.608,5.843,0.786,9.341c0.004,0.01,0.007,0.02,0.011,0.03
	c3.314-2.475,5.823-4.326,6.672-5.21c2.072-2.158,4.828-3.268,7.611-3.317c2.795-0.051,5.616,0.967,7.801,3.064
	c3.234,3.105,4.156,7.702,2.726,11.635c0.06,0.473,0.12,0.962,0.18,1.461c0,0.001,0,0.003,0.001,0.004
	c0.006,0.058,0.013,0.114,0.02,0.173c0.036,0.3,5.266-0.719,12.006-3.339c15.721-6.112,39.668-20.947,25.184-48.158
	c-5.544-10.417-18.5-9.5-28.082-9.5c-2.729,0-4.83-1.091-6.451-2.643c-13.854-26.365-24.18-23.646-37.85-19.13
	c-3.782,1.249-6.583,2.583-8.598,3.941c-7.35,4.957-4.224,10.251,0,13.047c2.047,1.355,4.35,2.124,5.845,1.982
	c0.015-0.001,0.031-0.002,0.046-0.003h0.006l0.115-0.015c0.631-0.077,7.156-0.658,9.126-0.663
	C414.349,250.802,414.562,250.833,414.381,250.91z"></path>
<path id="color_x5F_1" fill="#0984e3" d="M196.72,289.674c-2.912,0.824-6.141,1.873-9.34,2.978V119.745
	c0-5.798,5.178-10.498,11.566-10.498h188.232c6.388,0,11.566,4.7,11.566,10.498v116.71c-7.35,4.957-4.224,10.251,0,13.047v50.408
	c-4.731-1.677-9.697-3.306-13.747-4.335V130.66c0-5.043-4.505-9.132-10.063-9.132H211.19c-5.558,0-10.063,4.088-10.063,9.132
	v144.091c-1.83,2.516-4.409,14.81-4.409,14.921C196.719,289.673,196.719,289.674,196.72,289.674z M384.999,326.583
	c3.01,1.124,5.697,2.168,7.658,2.943c1.702-2.21,3.8-4.458,6.089-6.672v-8.506c-4.453-2.924-9.538-6.468-13.747-9.755V326.583z
	 M389.277,393.28c0,0,3.654,1.475,9.469,3.217v34.815c0,5.798-5.179,10.498-11.566,10.498H198.947
	c-6.389,0-11.566-4.7-11.566-10.498v-91.61c0.889-0.044,1.788-0.229,2.663-0.585c1.409-0.572,5.882-3.26,11.084-6.705v69.286
	c0,5.044,4.505,9.132,10.063,9.132h163.746c5.558,0,10.063-4.088,10.063-9.132v-59.18c2.251,1.376,3.969,2.342,4.747,2.657
	c2.461,0.999,5.111,0.712,7.192-0.534c0.568-0.215,1.179-0.471,1.808-0.744v22.708L389.277,393.28z M299.063,427.001
	c0-3.313-2.686-6-6-6c-3.313,0-6,2.687-6,6s2.687,6,6,6C296.378,433.001,299.063,430.314,299.063,427.001z M201.128,296.382
	c-3.926,3.229-9.041,6.888-13.747,10.045v16.943c3.282-1.295,8.402-3.268,13.747-5.145V296.382z M529.875,533.047
	c-113.919,0-227.838,0-341.756,0c-37.098,0-74.195,0-111.29,0c-2.868,0-2.868-4.444,0-4.444c4.838,0,9.671,0,14.509,0l11.01-18.378
	l21.699,18.378c9.152,0,18.301,0,27.452,0l4.651-15.721l28.524,15.721c30.117,0,60.247,0,90.357,0
	c-7.839-5.896-14.691-9.668-21.622-17.374c-7.859-8.74,2.823-18.225,15.315-14.525c5.727,1.695,12.86,8.861,18.912,16.124
	c0.446,4.413,1.273,8.771,2.318,13.088c-2.772-2.817-6.074-5.133-9.225-7.581c-6.354-4.938-12.535-10.401-18.137-16.174
	c-1.233-1.271-3.172,0.67-1.939,1.938c5.309,5.471,11.201,10.264,16.97,15.229c1.539,1.326,3.169,2.543,4.781,3.771
	c1.835,1.819,3.646,3.661,5.458,5.503c2.063,0,4.124,0,6.187,0c-1.011-5.818-5.671-34.892,0.185-45.023
	c6.518-11.28,20.797-11.75,21.107,0c0.31,11.75-2.793,19.739-4.346,31.489c-0.817,6.189-1.116,10.667-1.218,13.534
	c1.004,0,2.009,0,3.014,0c1.092-5.044,1.387-10.141,1.909-15.317c6.051-7.263,14.242-14.428,19.97-16.123
	c12.49-3.7,23.174,5.785,15.314,14.524c-6.752,7.507-13.428,11.275-21.014,16.916c24.199,0,48.4,0,72.597,0l28.136-15.507v15.507
	c9.768,0,19.535,0,29.303,0l24.686-18.174l7.212,18.174c12.99,0,25.979,0,38.97,0C532.741,528.602,532.741,533.047,529.875,533.047z
	 M303.651,484.262c-3.037,8.031-3.682,16.715-4.278,25.211c-0.446,6.358-0.589,12.789,0.101,19.129c0.919,0,1.838,0,2.758,0
	c-0.702-6.336-0.495-12.745-0.115-19.129c0.064-1.091,0.135-2.186,0.213-3.281c0.316-3.69,0.74-7.371,1.279-11.035
	c0.606-3.462,1.442-6.874,2.688-10.166C306.923,483.334,304.27,482.625,303.651,484.262z M327.089,519.165
	c5.468-4.906,10.601-10.373,16.639-14.587c1.439-1.005,0.069-3.384-1.384-2.368c-5.807,4.053-10.59,9.225-15.869,13.901
	c-4.534,4.014-9.07,7.979-13.07,12.491c1.23,0,2.46,0,3.69,0C320.244,525.282,323.674,522.23,327.089,519.165z M342.344,502.21
	c-5.807,4.053-10.59,9.225-15.869,13.901c-4.534,4.014-9.07,7.979-13.07,12.491c1.23,0,2.46,0,3.69,0
	c3.149-3.32,6.579-6.372,9.994-9.438c5.468-4.906,10.601-10.373,16.639-14.587C345.167,503.573,343.797,501.194,342.344,502.21z
	 M303.651,484.262c-3.037,8.031-3.682,16.715-4.278,25.211c-0.446,6.358-0.589,12.789,0.101,19.129c0.919,0,1.838,0,2.758,0
	c-0.702-6.336-0.495-12.745-0.115-19.129c0.064-1.091,0.135-2.186,0.213-3.281c0.316-3.69,0.74-7.371,1.279-11.035
	c0.606-3.462,1.442-6.874,2.688-10.166C306.923,483.334,304.27,482.625,303.651,484.262z M228.814,167.408h39.815
	c2.557,0,4.629-2.073,4.629-4.63c0-2.557-2.073-4.629-4.629-4.629h-39.815c-2.557,0-4.629,2.073-4.629,4.629
	C224.185,165.335,226.258,167.408,228.814,167.408z M228.814,225.928h39.815c2.557,0,4.629-2.073,4.629-4.63
	c0-2.557-2.073-4.629-4.629-4.629h-39.815c-2.557,0-4.629,2.073-4.629,4.629C224.185,223.855,226.258,225.928,228.814,225.928z
	 M228.814,284.448h39.815c2.557,0,4.629-2.073,4.629-4.63c0-2.557-2.073-4.629-4.629-4.629h-39.815
	c-2.557,0-4.629,2.073-4.629,4.629C224.185,282.375,226.258,284.448,228.814,284.448z M268.63,333.709h-39.815
	c-2.557,0-4.629,2.073-4.629,4.63s2.073,4.629,4.629,4.629h39.815c2.557,0,4.629-2.072,4.629-4.629S271.186,333.709,268.63,333.709z
	 M162.537,255.828c-0.548,0.042-0.922,0.793-0.843,1.676c0.079,0.886,0.587,1.568,1.127,1.527c0.548-0.042,0.918-0.794,0.844-1.678
	C163.589,256.468,163.078,255.785,162.537,255.828z M408.441,261.596c0.539-0.059,0.912-0.822,0.828-1.708
	c-0.086-0.882-0.592-1.552-1.137-1.492c-0.541,0.058-0.916,0.822-0.828,1.706C407.392,260.985,407.896,261.656,408.441,261.596z"></path>
</svg>