<?xml version="1.0" standalone="no"?>
<svg version="1.1" id="Layer_1" xmlns="http://www.w3.org/2000/svg" xmlns:xlink="http://www.w3.org/1999/xlink" x="0px" y="0px" width="595.279px" height="595.279px" viewBox="0 0.001 595.279 595.279" enable-background="new 0 0.001 595.279 595.279" xml:space="preserve">
<path id="color_x5F_5" fill="#ffd2bb" d="M208.369,191.859c-0.006-0.007-0.014-0.017-0.014-0.017s-2.265-3.66-2.265-9.237
	c0-3.834-2.126-5.196-6.279-5.185c-1.888,0.005-4.195,0.293-6.911,0.762c-0.815,0.141-1.567,0.189-2.268,0.164
	c-5.6-0.199-7.824-5.092-11.505-4.977c-0.767,0.024-1.597,0.266-2.535,0.813c-6,3.5-4.5,5.5-7.535,13.5
	c-0.807,2.128-2.145,3.259-3.671,3.782c-1.154,0.973-2.341,2.314-2.627,3.884c-0.699,3.834,2.192,15.209,0,19.587
	c-0.038,0.075-0.098,0.151-0.148,0.227c-0.042,0.064-0.076,0.129-0.126,0.194c-0.068,0.087-0.152,0.174-0.232,0.262
	c-0.051,0.056-0.096,0.112-0.152,0.169c-0.102,0.103-0.215,0.208-0.33,0.313c-0.043,0.04-0.083,0.079-0.127,0.119
	c-0.193,0.173-0.396,0.349-0.607,0.528c-0.102,0.086-0.202,0.173-0.306,0.26c-0.068,0.058-0.139,0.118-0.208,0.178
	c-0.132,0.114-0.262,0.229-0.392,0.347c-0.05,0.046-0.102,0.091-0.152,0.137c-0.168,0.155-0.331,0.313-0.486,0.475
	c-0.033,0.034-0.063,0.07-0.097,0.105c-0.122,0.131-0.236,0.264-0.346,0.399c-0.042,0.054-0.083,0.106-0.123,0.159
	c-0.106,0.145-0.204,0.291-0.291,0.44c-0.02,0.035-0.043,0.066-0.062,0.102c-0.098,0.18-0.175,0.366-0.234,0.556
	c-0.016,0.051-0.025,0.103-0.038,0.153c-0.038,0.149-0.063,0.302-0.073,0.457c-0.005,0.06-0.009,0.118-0.009,0.179
	c0,0.005,0.001,0.01,0.001,0.016c0.002,0.198,0.019,0.4,0.073,0.609c0.001,0.004,0.001,0.009,0.002,0.014
	c1.089,5.342,3.871,10.379,7.775,14.307c0.558,0.561,1.138,1.1,1.74,1.613c0,0,0,0,0.001,0.001l-2.447,8.11
	c0.028,0.032,0.057,0.063,0.086,0.095l0.028-0.095l2.427-8.031c4.476,3.784,10.113,6.188,16.252,6.254
	c0.087,0.001,0.172,0.006,0.259,0.006c0.858,0,1.689-0.04,2.502-0.107c5.884-0.483,10.536-2.666,14.122-5.698l0.095-0.076
	c3.249-2.776,5.618-6.25,7.221-9.79c0.001-0.003,0.002-0.006,0.004-0.009c0.014-0.188,0.429-6.037,1.124-11.001
	c0.81-0.53,0.851-16.476,0.507-18.793C209.282,193.35,208.472,192.014,208.369,191.859z M171.718,207.717
	c-1.166,0.009-2.165-1.524-2.211-3.437c-0.047-1.907,0.863-3.469,2.041-3.486c1.173-0.014,2.171,1.523,2.213,3.436
	C173.801,206.139,172.895,207.702,171.718,207.717z M197.113,207.717c-1.179-0.015-2.082-1.578-2.041-3.487
	c0.041-1.912,1.038-3.449,2.211-3.436c1.179,0.018,2.089,1.579,2.043,3.486C199.28,206.193,198.281,207.726,197.113,207.717z
	 M203.601,246.039l-0.014-0.04l-2.452-8.288c-0.031,0.025-0.063,0.05-0.095,0.076c-3.586,3.032-8.237,5.214-14.122,5.698
	c-0.813,0.067-1.643,0.107-2.502,0.107c-0.087,0-0.172-0.005-0.259-0.006c-6.139-0.066-11.776-2.47-16.252-6.254l-2.426,8.031
	l-0.028,0.095l-3.842,8.833l-2.398,5.514h9.588h35.263h4.084l0.082-1.019l-0.747-2.057L203.601,246.039z M184.711,254.368
	c-1.45,0-2.871-0.137-4.258-0.386C181.84,254.232,183.261,254.368,184.711,254.368z M165.878,245.924
	c2.962,3.123,6.621,5.594,10.708,7.035C172.499,251.518,168.84,249.047,165.878,245.924z M346.629,275.362l-3.648,12.527
	l-2.821,9.686c-1.896-0.171-3.671-0.684-5.251-1.457c-2.9-1.418-5.129-3.727-6.169-6.497c-0.21-0.559-0.36-1.14-0.47-1.733
	c-0.109-0.591-0.182-1.192-0.182-1.809c0-6.384,6.044-11.56,13.499-11.56C343.371,274.52,345.069,274.823,346.629,275.362z
	 M355.086,286.08c0,0.617-0.072,1.218-0.182,1.809c-0.841,4.574-4.804,8.248-9.969,9.379l2.731-9.379l3.011-10.336
	C353.38,279.666,355.086,282.698,355.086,286.08z"></path>
<path id="color_x5F_3" fill="#0984e3" d="M76.371,115.001v285.186h67.625l5.104-7.276c-21.933-7.348-45.543-17.079-52.197-20.533
	c-5.432-2.82-9.44-6.591-11.741-10.604c-0.628-0.118-1.187-0.313-1.65-0.611c-11.796-7.604,36.605-72.8,47.247-83.641
	c3.465-3.528,28.491-16.8,28.491-16.8l48.896-0.731c7.71,0.637,27.484,12.084,30.997,18.5c4.052,7.404,15.437,35.369,22.924,60.323
	c7.253-6.989,27.814-24.286,45.416-36.629c-0.981-1.461-1.556-3.22-1.556-5.113c0-5.072,4.112-9.183,9.184-9.183h13.158
	c-0.109-0.591-0.182-1.192-0.182-1.809c0-6.384,6.044-11.56,13.499-11.56c1.784,0,3.482,0.303,5.042,0.842l3.903-13.403h-35.421
	c-5.071,0-9.184-4.111-9.184-9.183s4.112-9.183,9.184-9.183h40.77l7.552-25.93h-48.321c-5.071,0-9.184-4.111-9.184-9.183
	s4.112-9.183,9.184-9.183h53.67l0.46-1.578c0.214-0.736,1.355-1.051,2.548-0.704s1.986,1.226,1.772,1.962l-0.093,0.32h114.928
	c5.071,0,9.183,4.111,9.183,9.183s-4.111,9.183-9.183,9.183H368.119l-7.552,25.93h127.829c5.071,0,9.183,4.111,9.183,9.183
	s-4.111,9.183-9.183,9.183H355.219l-4.541,15.593c2.702,2.114,4.408,5.146,4.408,8.528c0,0.617-0.072,1.218-0.182,1.809h133.492
	c5.071,0,9.183,4.111,9.183,9.183s-4.111,9.183-9.183,9.183H342.318l-1.388,4.764c-0.214,0.736-1.355,1.051-2.548,0.703
	s-1.986-1.227-1.772-1.961l1.021-3.506h-7.72c-4.435,7.713-10.831,17.1-17.585,26.362c0.878-0.279,1.813-0.433,2.784-0.433h173.285
	c5.071,0,9.183,4.111,9.183,9.184c0,5.071-4.111,9.183-9.183,9.183H315.111c-5.071,0-9.184-4.111-9.184-9.183
	c0-0.052,0.007-0.102,0.008-0.153c-10.469,13.827-20.586,26.026-24.523,30.065c-4.272,4.383-9.042,7.128-13.549,8.168
	c-0.295,0.567-0.643,1.045-1.063,1.402c-6.534,5.554-27.142-16.631-43.85-37.769l-11.607,36.844l15.893,20.261h147.702v-9.867
	c0.374-0.037,0.754-0.057,1.138-0.057h60.314c5.837,0,10.653,4.313,11.471,9.924h87.625V115.001H76.371z M240.385,238.541
	c-1.66,1.182-3.725,2.1-6.284,2.479c-0.009,0.002-0.019,0.005-0.027,0.006c-0.063,0.011-0.125,0.012-0.188,0.021
	c-2.37,0.321-5.149,0.188-8.425-0.627c-8.241-2.057-7.764,1.6-15.8,13.584c-0.718,1.069-1.445,1.964-2.179,2.726l0.747,2.057
	l-0.082,1.019l-48.896,0.916l2.358-6.43c-0.068-0.097-0.136-0.188-0.203-0.289c-8.036-11.984-7.561-15.641-15.802-13.584
	c-8.74,2.179-14.006-0.462-17.129-3.822c-5.718-4.095-9.031-10.555-1.546-17.917c9.66-9.5,12.982-9.547,10.092-17.281
	c-6.432-17.216,8.026-22.523,8.026-22.523l0.002,0.001c4.288-4.03,10.764-6.506,13.247-12.693c0.979-2.438-2.617-5.096,2.541-12
	c8.219-11,16.754-2.5,22.213-1.5s12.608-8.721,20.421-5.615c14.12,5.615,8.12,17.115,8.12,17.115s0,0,3.119,6
	s12.807,4.425,17.381,10c14.771,18.007-6.232,26.859,10.741,31.737C255.263,215.492,250.511,232.02,240.385,238.541z
	 M409.911,387.471c-9.113,0-16.5-7.387-16.5-16.5c0-9.112,7.387-9.592,16.5-9.592c9.112,0,16.499,0.479,16.499,9.592
	C426.41,380.085,419.023,387.471,409.911,387.471z M488.396,173.367H315.111c-5.071,0-9.184-4.111-9.184-9.183
	s4.112-9.183,9.184-9.183h173.285c5.071,0,9.183,4.111,9.183,9.183S493.468,173.367,488.396,173.367z M538.075,442.139v-0.051
	h-13.099c0.672,2.136,1.182,4.486,1.348,6.979c0.678,10.222-4.633,18.894-4.633,18.894s-6.414-7.895-7.092-18.119
	c-0.184-2.745,0.073-5.37,0.536-7.754H269.018v80.468h269.057v-10.355c-2.462,1.631-5.118,3.147-7.972,4.453
	c-19.098,8.738-39.588,4.872-39.588,4.872s10.465-18.036,29.564-26.78c6.094-2.789,12.327-4.291,17.995-5.047v-6.214
	c-2.173,1.674-4.651,3.249-7.427,4.505c-11.795,5.342-24.414,2.905-24.414,2.905s6.494-11.091,18.297-16.43
	c4.662-2.112,9.453-3.006,13.544-3.316v-12.242c-5.011,3.815-9.858,5.387-9.858,5.387s0.281-10.167,6.424-18.364
	C535.701,444.514,536.871,443.261,538.075,442.139z M388.273,509.212H283.092v-41.25h105.182V509.212z M484.615,520.302
	c0,0-10.18-12.522-11.254-28.739c-1.078-16.216,7.35-29.978,7.35-29.978s10.176,12.52,11.25,28.739
	C493.039,506.539,484.615,520.302,484.615,520.302z M503.435,491.451c0,0-8.107-9.983-8.961-22.893
	c-0.865-12.917,5.854-23.883,5.854-23.883s8.098,9.979,8.959,22.893C510.144,480.487,503.435,491.451,503.435,491.451z
	 M373.4,420.561h72.707c4.971,0,9.001,4.029,9.001,9s-4.03,9-9.001,9H373.4c-0.298,0-7.611-0.015-7.901-0.043v-17.914
	C365.789,420.576,373.102,420.561,373.4,420.561z M434.107,410.869h-50.814c-0.298,0-7.611-0.015-7.901-0.043v-0.243v-10.396v-7.274
	c0.29-0.028,7.604-0.043,7.901-0.043h50.814c4.395,0,8.049,3.151,8.838,7.317c0.104,0.546,0.163,1.106,0.163,1.683
	c0,4.205-2.888,7.726-6.785,8.714C435.613,410.762,434.873,410.869,434.107,410.869z M379.667,501.145h-90.095v-24.472h90.095
	V501.145z"></path>
<path id="color_x5F_2" fill="#4652ec" d="M169.507,204.281c-0.047-1.907,0.863-3.469,2.041-3.486
	c1.173-0.014,2.171,1.523,2.213,3.436c0.04,1.909-0.865,3.473-2.043,3.487C170.552,207.726,169.552,206.193,169.507,204.281z
	 M197.113,207.717c1.168,0.009,2.167-1.524,2.213-3.437c0.046-1.907-0.864-3.469-2.043-3.486c-1.173-0.014-2.17,1.523-2.211,3.436
	C195.031,206.139,195.934,207.702,197.113,207.717z M185.359,281.067c1.761,0,3.188-1.427,3.188-3.188s-1.427-3.188-3.188-3.188
	s-3.188,1.428-3.188,3.188S183.598,281.067,185.359,281.067z M185.359,312.257c1.761,0,3.188-1.427,3.188-3.188
	s-1.427-3.188-3.188-3.188s-3.188,1.428-3.188,3.188S183.598,312.257,185.359,312.257z M338.383,311.721
	c1.192,0.348,2.334,0.033,2.548-0.703l1.388-4.764l2.617-8.987l2.731-9.379l3.011-10.336l4.541-15.593l5.349-18.366l7.552-25.93
	l5.35-18.366l0.093-0.32c0.214-0.736-0.58-1.615-1.772-1.962s-2.334-0.032-2.548,0.704l-0.46,1.578l-5.349,18.366l-7.552,25.93
	l-5.349,18.366l-3.903,13.403l-3.648,12.527l-2.821,9.686l-2.527,8.68l-1.021,3.506C336.396,310.495,337.19,311.374,338.383,311.721
	z M459.996,429.561c0,6.41-5.196,11.606-11.606,11.606h-82.207c-0.384,0-0.764-0.02-1.138-0.057v-23.1
	c0.374-0.037,0.754-0.057,1.138-0.057h82.207C454.8,417.955,459.996,423.151,459.996,429.561z M455.108,429.561
	c0-4.971-4.03-9-9.001-9H373.4c-0.298,0-7.611,0.015-7.901,0.043v17.914c0.29,0.028,7.604,0.043,7.901,0.043h72.707
	C451.078,438.561,455.108,434.532,455.108,429.561z M538.075,489.699c-5.668,0.756-11.901,2.258-17.995,5.047
	c-19.1,8.744-29.564,26.78-29.564,26.78s20.49,3.866,39.588-4.872c2.854-1.306,5.51-2.822,7.972-4.453
	c14.013-9.278,21.593-22.326,21.593-22.326S550.164,488.086,538.075,489.699z M491.961,490.325
	c-1.074-16.22-11.25-28.739-11.25-28.739s-8.428,13.762-7.35,29.978c1.074,16.217,11.254,28.739,11.254,28.739
	S493.039,506.539,491.961,490.325z M500.328,444.676c0,0-6.719,10.966-5.854,23.883c0.854,12.909,8.961,22.893,8.961,22.893
	s6.709-10.964,5.852-23.883C508.426,454.654,500.328,444.676,500.328,444.676z M526.324,449.068
	c-0.166-2.493-0.676-4.844-1.348-6.979c-2.082-6.62-5.746-11.138-5.746-11.138s-2.834,4.649-4.095,11.138
	c-0.463,2.384-0.72,5.009-0.536,7.754c0.678,10.225,7.092,18.119,7.092,18.119S527.002,459.29,526.324,449.068z M538.075,442.139
	c-1.204,1.122-2.374,2.375-3.435,3.79c-6.143,8.197-6.424,18.364-6.424,18.364s4.848-1.571,9.858-5.387
	c2.071-1.577,4.17-3.528,5.966-5.925c6.148-8.195,6.428-18.361,6.428-18.361S543.844,436.763,538.075,442.139z M530.648,487.99
	c2.775-1.256,5.254-2.831,7.427-4.505c7.063-5.439,10.868-11.924,10.868-11.924s-4.616-0.888-10.868-0.412
	c-4.091,0.311-8.882,1.204-13.544,3.316c-11.803,5.339-18.297,16.43-18.297,16.43S518.853,493.332,530.648,487.99z M546.666,104.604
	v305.979H444.039c-2.044,1.795-4.716,2.893-7.649,2.893h-60.314c-0.384,0-0.764-0.02-1.138-0.057v-2.836H235.391l14.887,18.979
	h-7.436c4.74,10.852,7.436,23.227,7.436,36.372c0,22.342-7.767,42.465-20.188,56.623h-87.228
	c-12.421-14.158-20.188-34.281-20.188-56.623c0-13.146,2.696-25.521,7.437-36.372h-6.722l13.314-18.979H65.19V104.604H546.666z
	 M443.108,401.869c0-0.576-0.06-1.137-0.163-1.683c-0.789-4.166-4.443-7.317-8.838-7.317h-50.814c-0.298,0-7.611,0.015-7.901,0.043
	v7.274v10.396v0.243c0.29,0.028,7.604,0.043,7.901,0.043h50.814c0.766,0,1.506-0.106,2.216-0.286
	C440.22,409.594,443.108,406.074,443.108,401.869z M535.485,115.001H76.371v285.186h67.625l5.104-7.276
	c-21.933-7.348-45.543-17.079-52.197-20.533c-5.432-2.82-12.927-10.916-13.391-11.215c-11.796-7.604,36.605-72.8,47.247-83.641
	c3.465-3.528,21.307-15.367,28.491-16.8c0.09,2.087,0.223,4.37,0.397,6.837c0.22,3.113,0.502,6.508,0.841,10.127
	c1.142,14.271,2.459,26.418,3.918,33.989c0.057,0.431,0.115,0.863,0.173,1.295c3.177,23.821,7.313,49.518,11.232,68.567
	c0.547,2.66,1.09,5.186,1.625,7.563c0.95,4.218,1.876,7.961,2.761,11.086c0.119,0.421,0.237,0.827,0.355,1.225
	c1.72,5.826,3.27,9.22,4.511,9.172c1.154-0.044,2.542-3.394,4.057-9.104c0.11-0.416,0.222-0.853,0.333-1.293
	c0.298-1.174,0.6-2.429,0.906-3.769c0.54-2.363,1.091-4.979,1.649-7.798c3.724-18.793,7.778-46.875,10.915-73.075
	c2.031-16.969,3.677-33.145,4.597-45.483c0.278-3.739,0.49-7.122,0.626-10.072c16.186-0.201,27.484,12.084,30.997,18.5
	c4.052,7.404,15.437,35.369,22.924,60.323c7.253-6.989,27.814-24.286,45.416-36.629c8.325-5.838,15.98-10.56,21.256-12.563
	c1.04,2.77,3.269,5.078,6.169,6.497c-1.031,2.802-2.767,6.259-4.996,10.137c-4.435,7.713-10.831,17.1-17.585,26.362
	c-2.113,2.897-4.259,5.78-6.392,8.598c-10.469,13.827-20.586,26.026-24.523,30.065c-4.272,4.383-14.192,9.213-14.612,9.57
	c-6.534,5.554-27.142-16.631-43.85-37.769l-11.607,36.844l15.893,20.261h147.702v-9.867c0.374-0.037,0.754-0.057,1.138-0.057h60.314
	c5.837,0,10.653,4.313,11.471,9.924h87.625V115.001z M140.686,331.621c-5.956,4.385-12.199,8.793-18.307,12.841
	c5.84,3.268,17.732,10.84,30.021,19.45L140.686,331.621z"></path>
<path id="color_x5F_1" fill="#000000" d="M165.451,245.459l-3.842,8.833c-0.068-0.097-0.136-0.188-0.203-0.289
	c-8.036-11.984-7.561-15.641-15.802-13.584c-8.74,2.179-14.006-0.462-17.129-3.822c-5.718-4.095-9.031-10.555-1.546-17.917
	c9.66-9.5,12.982-9.547,10.092-17.281c-6.432-17.216,8.026-22.523,8.026-22.523l0.002,0.001c4.288-4.03,10.764-6.506,13.247-12.693
	c0.979-2.438-2.617-5.096,2.541-12c8.219-11,16.754-2.5,22.213-1.5s12.608-8.721,20.421-5.615c14.12,5.615,8.12,17.115,8.12,17.115
	s0,0,3.119,6s12.807,4.425,17.381,10c14.771,18.007-6.232,26.859,10.741,31.737c12.431,3.572,7.679,20.1-2.448,26.621
	c-1.66,1.182-3.725,2.1-6.284,2.479c-0.009,0.002-0.019,0.005-0.027,0.006c-0.063,0.011-0.125,0.012-0.188,0.021
	c-2.37,0.321-5.149,0.188-8.425-0.627c-8.241-2.057-7.764,1.6-15.8,13.584c-0.718,1.069-1.445,1.964-2.179,2.726l-3.881-10.691
	L203.59,246l-2.452-8.288c3.249-2.776,5.618-6.25,7.221-9.79c0-0.001,0-0.009,0.001-0.011c1.854-4.098,2.689-8.277,2.689-11.555
	v-8.359c0.438-3.521,0.344-6.413,0-8.731v-0.002c-0.728-4.904-2.541-7.232-2.68-7.405c-0.007-0.011-0.012-0.017-0.012-0.017
	s-2.265-3.66-2.265-9.237c0-3.834-2.127-5.196-6.281-5.185c-1.889,0.005-4.196,0.293-6.913,0.762
	c-0.814,0.141-1.566,0.189-2.266,0.164c-5.6-0.2-7.823-5.094-11.505-4.977c-0.768,0.024-1.599,0.266-2.537,0.813
	c-6,3.5-4.5,5.5-7.535,13.5c-0.807,2.128-2.145,3.259-3.671,3.782c-1.154,0.973-2.341,2.313-2.627,3.884
	c-0.699,3.834,2.192,15.209,0,19.587c-0.038,0.075-0.096,0.151-0.146,0.227c-0.042,0.064-0.076,0.129-0.126,0.194
	c-0.068,0.087-0.152,0.174-0.232,0.262c-0.051,0.056-0.096,0.112-0.152,0.169c-0.102,0.103-0.215,0.208-0.33,0.313
	c-0.043,0.04-0.083,0.079-0.127,0.119c-0.153,0.137-0.312,0.275-0.477,0.415c-1.345,1.146-2.964,2.433-2.946,4.075
	c0.001,0.198,0.02,0.4,0.073,0.609c0.001,0.004,0,0.008,0.001,0.013c1.089,5.342,3.871,10.38,7.776,14.308
	c0.558,0.561,1.138,1.1,1.74,1.613l-2.447,8.111C165.391,245.396,165.422,245.426,165.451,245.459L165.451,245.459
	C165.45,245.459,165.45,245.459,165.451,245.459z M211.049,207.997c0.438-3.521,0.344-6.413,0-8.731v8.729V207.997z
	 M167.811,237.253C167.811,237.253,167.811,237.253,167.811,237.253l-2.448,8.11c0.028,0.032,0.059,0.063,0.087,0.095l0,0
	c-0.029-0.032-0.058-0.063-0.086-0.095L167.811,237.253z M190.633,178.346c0.699,0.025,1.452-0.023,2.266-0.164
	c2.717-0.469,5.024-0.757,6.913-0.762c-1.888,0.005-4.195,0.293-6.911,0.762C192.085,178.323,191.333,178.371,190.633,178.346z
	 M209.99,198.117c-0.708-4.767-1.518-6.103-1.621-6.258c0.139,0.173,1.952,2.501,2.68,7.405v0.002v8.729v0.002v8.359
	c0,3.278-0.836,7.457-2.689,11.555c0.014-0.188,0.429-6.037,1.124-11.001C210.293,216.38,210.334,200.435,209.99,198.117z
	 M210.027,213.585c-0.001,0.01-0.004,0.019-0.006,0.028C210.023,213.604,210.026,213.595,210.027,213.585z M162.485,215.356
	c-0.068,0.087-0.152,0.174-0.232,0.262C162.333,215.53,162.417,215.443,162.485,215.356z M162.76,195.348
	c0.286-1.569,1.473-2.911,2.627-3.884c1.526-0.523,2.864-1.654,3.671-3.782c3.035-8,1.535-10,7.535-13.5
	c0.938-0.547,1.768-0.789,2.535-0.813c-0.768,0.024-1.599,0.266-2.537,0.813c-6,3.5-4.5,5.5-7.535,13.5
	c-0.807,2.128-2.145,3.259-3.671,3.782c-1.154,0.973-2.341,2.313-2.627,3.884c-0.699,3.834,2.192,15.209,0,19.587
	c-0.038,0.075-0.096,0.151-0.146,0.227c0.05-0.076,0.111-0.152,0.148-0.227C164.952,210.557,162.06,199.182,162.76,195.348z
	 M158.293,221.319c0.001,0.004,0,0.008,0.001,0.013c1.089,5.342,3.871,10.38,7.776,14.308c-3.904-3.928-6.686-8.965-7.775-14.307
	C158.295,221.327,158.294,221.323,158.293,221.319z M162.1,215.787c-0.102,0.103-0.215,0.208-0.33,0.313
	C161.885,215.995,161.998,215.89,162.1,215.787z M158.228,220.515c0.011-0.155,0.035-0.308,0.073-0.457
	c0.013-0.051,0.022-0.103,0.038-0.153c0.06-0.189,0.137-0.376,0.234-0.556c0.019-0.035,0.042-0.066,0.062-0.102
	c0.087-0.149,0.185-0.296,0.291-0.44c0.04-0.053,0.081-0.105,0.123-0.159c0.109-0.136,0.224-0.269,0.346-0.399
	c0.033-0.035,0.063-0.071,0.097-0.105c0.155-0.162,0.318-0.319,0.486-0.475c0.051-0.046,0.103-0.091,0.152-0.137
	c0.13-0.117,0.26-0.232,0.392-0.347c0.069-0.06,0.14-0.12,0.208-0.178c0.104-0.087,0.204-0.174,0.306-0.26
	c0.211-0.18,0.414-0.355,0.607-0.528c-0.153,0.137-0.312,0.275-0.477,0.415c-1.345,1.146-2.964,2.433-2.946,4.075
	c0-0.005-0.001-0.01-0.001-0.016C158.219,220.633,158.223,220.574,158.228,220.515z M409.911,361.38c-9.113,0-16.5,0.479-16.5,9.592
	c0,9.113,7.387,16.5,16.5,16.5c9.112,0,16.499-7.387,16.499-16.5C426.41,361.859,419.023,361.38,409.911,361.38z"></path>
</svg>